<?xml version="1.0" encoding="UTF-8"?> <!-- Generator: Adobe Illustrator 22.1.0, SVG Export Plug-In . SVG Version: 6.00 Build 0) --> <svg xmlns="http://www.w3.org/2000/svg" xmlns:xlink="http://www.w3.org/1999/xlink" id="Layer_1" x="0px" y="0px" viewBox="0 0 2267.7 1700.8" style="enable-background:new 0 0 2267.7 1700.8;" xml:space="preserve"> <style type="text/css"> .st0{fill:#FF00FF;} </style> <g> <g> <path class="st0" d="M453.4,1215.7l-327-537.2v537.2H0V485.1h149.6l305.7,508.4l307.5-508.4h143.1v730.5H779.5V678.5L453.4,1215.7 z"></path> <path class="st0" d="M1835.9,850.4c0,211.9-165.4,379.2-393.9,379.2S1048,1062.3,1048,850.4s165.4-379.2,393.9-379.2 S1835.9,637.6,1835.9,850.4z M1709.5,850.4c0-151.5-113.3-268.6-267.6-268.6S1174.4,698,1174.4,850.4s113.3,268.6,267.6,268.6 S1709.5,1001.9,1709.5,850.4z"></path> </g> <g> <path class="st0" d="M2264.8,1096.5v129.8h-24.6l-66.1-61.6c-5.3-4.9-9.9-8.6-14.4-12.3c-4.1-3.3-8.2-6.2-11.5-8.2 c-3.7-2.1-7-3.7-9.9-4.5c-2.9-0.8-6.2-1.2-9-1.2c-4.1,0-8.2,0.4-11.5,1.6c-3.3,1.2-6.2,2.9-8.2,5.3c-2.5,2.1-4.1,4.9-5.3,7.8 c-1.2,3.3-1.6,6.6-1.6,10.3c0,9.9,2.9,17.7,8.2,22.2c5.7,4.9,13.5,7.4,23.4,7.4v36.5c-8.6,0-16.4-1.6-23.8-4.9 c-7.4-3.3-14-7.8-19.7-13.6c-5.7-5.7-10.3-13.1-13.5-21.4c-3.3-8.2-4.9-17.7-4.9-27.5c0-9.9,1.2-18.1,4.1-25.5 c2.9-7.4,6.6-13.6,11.5-18.5c4.9-4.9,10.7-8.6,17.7-11.5c7-2.9,14.4-4.1,22.6-4.1c6.2,0,12.3,0.8,18.1,2.9 c5.7,2.1,11.5,4.9,16.8,8.2c5.7,3.7,11.1,7.8,16.8,13.1c5.7,4.9,11.9,10.7,18.1,16.8l37.8,35.7v-83.4h29.1V1096.5z"></path> <path class="st0" d="M2192.6,890.8c12.3,0,23,1.2,32.4,4.1c9.4,2.9,17.2,7,23.4,12.3c6.2,5.3,11.1,11.9,14.4,19.3 c3.3,7.8,4.9,16.4,4.9,25.9c0,9.4-1.6,18.1-4.9,25.9c-3.3,7.8-7.8,14-14.4,19.7c-6.2,5.3-14,9.4-23.4,12.3 c-9.4,2.9-20.1,4.5-32.4,4.5H2147c-12.3,0-23-1.2-32.4-4.1c-9.4-2.9-17.2-7-23.4-12.3s-11.1-11.9-14.4-19.3 c-3.3-7.8-4.9-16-4.9-25.5c0-9.4,1.6-18.1,4.9-25.9c3.3-7.8,7.8-14,14.4-19.7c6.2-5.3,14-9.4,23.4-12.3c9.4-2.9,20.1-4.1,32.4-4.1 h45.6V890.8z M2177,977.8l-37.8-50.5c-12.7,0.4-22.2,2.5-28.3,6.6c-6.2,4.1-9.4,10.3-9.4,18.9c0,8.6,3.3,14.8,9.9,18.9 c6.6,4.1,16.4,6.2,30,6.2L2177,977.8L2177,977.8z M2163.9,927.3l37.8,50.5c12.7-0.4,21.8-2.9,27.9-7c6.2-4.1,9-10.3,9-18.5 c0-8.6-3.3-14.8-9.9-18.9s-16.8-6.2-30.4-6.2H2163.9z"></path> <path class="st0" d="M2264.8,676.9v129.8h-24.6l-66.1-61.6c-5.3-4.9-9.9-8.6-14.4-12.3c-4.1-3.3-8.2-6.2-11.5-8.2 c-3.7-2.1-7-3.7-9.9-4.5c-2.9-0.8-6.2-1.2-9-1.2c-4.1,0-8.2,0.4-11.5,1.6c-3.3,1.2-6.2,2.9-8.2,5.3c-2.5,2.1-4.1,4.9-5.3,7.8 c-1.2,3.3-1.6,6.6-1.6,10.3c0,9.9,2.9,17.7,8.2,22.2c5.7,4.9,13.5,7.4,23.4,7.4V810c-8.6,0-16.4-1.6-23.8-4.9 c-7.4-3.3-14-7.8-19.7-13.6c-5.7-5.7-10.3-13.1-13.5-21.4c-3.3-8.2-4.9-17.7-4.9-27.5c0-9.9,1.2-18.1,4.1-25.5 c2.9-7.4,6.6-13.6,11.5-18.5c4.9-4.9,10.7-8.6,17.7-11.5c7-2.9,14.4-4.1,22.6-4.1c6.2,0,12.3,0.8,18.1,2.9s11.5,4.9,16.8,8.2 c5.7,3.7,11.1,7.8,16.8,13.1c5.7,4.9,11.9,10.7,18.1,16.8l37.8,35.7v-83.4h29.1V676.9z"></path> <path class="st0" d="M2192.6,471.2c12.3,0,23,1.2,32.4,4.1c9.4,2.9,17.2,7,23.4,12.3c6.2,5.3,11.1,11.9,14.4,19.3 c3.3,7.8,4.9,16.4,4.9,25.9c0,9.4-1.6,18.1-4.9,25.9c-3.3,7.8-7.8,14-14.4,19.7c-6.2,5.3-14,9.4-23.4,12.3 c-9.4,2.9-20.1,4.5-32.4,4.5H2147c-12.3,0-23-1.2-32.4-4.1c-9.4-2.9-17.2-7-23.4-12.3s-11.1-11.9-14.4-19.3 c-3.3-7.8-4.9-16-4.9-25.5c0-9.4,1.6-18.1,4.9-25.9c3.3-7.8,7.8-14,14.4-19.7c6.2-5.3,14-9.4,23.4-12.3c9.4-2.9,20.1-4.1,32.4-4.1 h45.6V471.2z M2177,558.3l-37.8-50.5c-12.7,0.4-22.2,2.5-28.3,6.6c-6.2,4.1-9.4,10.3-9.4,18.9c0,8.6,3.3,14.8,9.9,18.9 c6.6,4.1,16.4,6.2,30,6.2L2177,558.3L2177,558.3z M2163.9,507.8l37.8,50.5c12.7-0.4,21.8-2.9,27.9-7s9-10.3,9-18.5 c0-8.6-3.3-14.8-9.9-18.9s-16.8-6.2-30.4-6.2H2163.9z"></path> </g> </g> </svg> 