<?xml version="1.0" encoding="UTF-8"?>
<svg width="58" height="44" xmlns="http://www.w3.org/2000/svg" version="1.1" xmlns:xlink="http://www.w3.org/1999/xlink" viewBox="0 0 58 44"><defs></defs><g><g><path d="M24.15688,5.25518c-5.87975,2.24314 -9.65698,8.89405 -9.65698,14.29898h9.62551v24.44361h-24.12552v-18.06659c0,-13.94327 9.05766,-23.39365 21.74995,-25.93245zM57.98779,5.25518c-5.87734,2.24314 -9.65458,8.89405 -9.65458,14.29898h9.6666v24.44361h-24.12552v-18.06659c0,-13.94327 9.01657,-23.39365 21.70887,-25.93245zM54.21295,2.82395c-11.10706,2.94532 -17.92202,11.65063 -17.92202,23.10723v15.62282h19.29222v-19.55608h-9.6666v-2.44377c0,-5.29208 3.09334,-12.05847 8.87878,-15.45916zM20.37964,2.81999v0l0.58239,1.27501c-5.78556,3.40068 -8.8789,10.16708 -8.8789,15.45916v2.44377v0h9.62563v0v19.55608v0h-19.29222v0v-15.62282c0,-11.45462 6.83189,-20.15993 17.9631,-23.11119" fill="#ffffff" fill-opacity="1"></path></g></g></svg>
